<?xml version="1.0" encoding="utf-8"?>
<!-- Generator: Adobe Illustrator 19.0.0, SVG Export Plug-In . SVG Version: 6.00 Build 0)  -->
<svg version="1.1" id="Layer_1" xmlns="http://www.w3.org/2000/svg" xmlns:xlink="http://www.w3.org/1999/xlink" x="0px" y="0px"
	 viewBox="0 0 800 875" style="enable-background:new 0 0 800 875;" xml:space="preserve">
<style type="text/css">
	.st0{fill:#FFFFFF;}
</style>
<path class="st0" d="M545.6,371.1l-10.9-63.5h-57.8l-10.1,63.5h-39.4L475.9,97h57.4l52.1,274.1H545.6z M504.4,131.1l-22.8,144.5
	h47.7L504.4,131.1z M302.6,699.9h-46.9c-27.1,0-40.7-13-40.7-39v-197c0-25.7,13.6-38.5,40.7-38.5h46.9c27.1,0,40.7,12.8,40.7,38.5
	v41.6h-39.8v-36.3c0-5.3-0.9-8.7-2.6-10.3c-1.8-1.6-5.3-2.4-10.5-2.4H268c-5.3,0-8.8,0.8-10.5,2.4c-1.8,1.6-2.6,5-2.6,10.3v187
	c0,5.3,0.9,8.7,2.6,10.3c1.8,1.6,5.3,2.4,10.5,2.4h22.3c5.3,0,8.8-0.8,10.5-2.4c1.8-1.6,2.6-5,2.6-10.3v-67h-21.9v-30.7h61.7v102.5
	C343.3,686.9,329.7,699.9,302.6,699.9z M299.5,371.1H257c-27.1,0-40.7-12.8-40.7-38.5v-40.3h39.8v34.2c0,5.3,0.9,8.7,2.6,10.3
	c1.8,1.6,5.3,2.4,10.5,2.4h18.4c5.3,0,8.7-0.8,10.3-2.4c1.6-1.6,2.4-5,2.4-10.3v-67c0-5.3-0.8-8.7-2.4-10.3c-1.6-1.6-5-2.4-10.3-2.4
	h-32.4c-26.6,0-39.8-13-39.8-39v-72.2c0-25.7,13.6-38.5,40.7-38.5h42.9c27.1,0,40.7,12.8,40.7,38.5v40.3h-39.8v-34.2
	c0-5.3-0.9-8.7-2.6-10.3c-1.8-1.6-5.3-2.4-10.5-2.4h-18.4c-5.3,0-8.8,0.8-10.5,2.4c-1.8,1.6-2.6,5-2.6,10.3v60.9
	c0,5.3,0.9,8.7,2.6,10.3c1.8,1.6,5.3,2.4,10.5,2.4h32c26.9,0,40.3,12.8,40.3,38.5v78.8C340.7,358.2,326.9,371.1,299.5,371.1z
	 M567.7,778.6H217.4v-35h350.3V778.6z M568.3,667.5v32H449.2V425.4h116v32h-76.2v84.5h63.1v32h-63.1v93.7H568.3z"/>
</svg>
